<?xml version="1.0" encoding="UTF-8" standalone="no"?>
<!-- Created with Inkscape (http://www.inkscape.org/) -->

<svg
   version="1.1"
   id="svg1"
   width="765"
   height="361"
   viewBox="0 0 765 361"
   xmlns="http://www.w3.org/2000/svg"
   xmlns:svg="http://www.w3.org/2000/svg">
  <defs
     id="defs1">
    <filter
       style="color-interpolation-filters:sRGB"
       id="filter35"
       x="-0.05444339"
       y="-0.12049697"
       width="1.1088868"
       height="1.2409939">
      <feGaussianBlur
         stdDeviation="16.766983"
         id="feGaussianBlur35" />
    </filter>
  </defs>
  <path
     style="display:inline;opacity:1;fill:#00ffff;fill-opacity:0.5;filter:url(#filter35)"
     d="m 28.603607,343.49405 c -1.465542,-0.5902 -2.562638,-2.31787 -3.293561,-5.18662 -0.602803,-2.36589 -2.628735,-9.47662 -4.502071,-15.80162 -3.659857,-12.35688 -7.506813,-26.8318 -7.506813,-28.24583 0,-0.47804 1.873243,-0.73079 4.162763,-0.56167 l 4.162762,0.3075 4.304626,16.5 c 2.367545,9.075 4.319302,16.9125 4.337238,17.41667 0.08939,2.51263 1.521792,-1.61288 5.91549,-17.0374 l 4.808084,-16.87927 3.989634,-0.29944 3.989633,-0.29944 4.837046,16.79944 c 2.660375,9.23969 5.111626,17.12899 5.447225,17.53178 0.335598,0.40279 2.620626,-7.13464 5.077839,-16.74984 l 4.467657,-17.48218 3.75,-1.6e-4 c 2.63172,-1.1e-4 3.75,0.43795 3.75,1.46897 0,2.06747 -11.995119,45.63941 -13.171482,47.84505 -0.760205,1.42536 -1.649234,1.66823 -4.148049,1.13319 -1.749256,-0.37455 -3.324213,-0.80968 -3.499904,-0.96696 -0.637354,-0.57055 -9.141918,-30.02737 -9.160977,-31.73041 -0.02824,-2.52355 -1.699917,-2.15489 -2.267194,0.5 -1.577598,7.38325 -9.163255,31.36994 -10.114976,31.98469 -1.428304,0.92258 -2.562166,0.8702 -5.33497,-0.24645 z m 422.518103,-0.35351 c -11.06045,-3.04843 -16.13226,-10.7433 -16.17374,-24.53856 -0.0306,-10.17264 2.05907,-15.87482 7.60063,-20.74031 4.85046,-4.25871 9.61433,-5.64587 17.80077,-5.18329 8.9194,0.50399 14.23422,3.9387 18.20179,11.76293 2.28278,4.50176 2.74905,6.70936 2.74442,12.99381 -0.003,4.16388 -0.45127,9.1751 -0.99602,11.13604 -1.25518,4.51834 -6.94488,11.21612 -11.21538,13.20248 -4.84841,2.25516 -12.59956,2.845 -17.96247,1.3669 z m 16.00394,-9.31618 c 8.69759,-6.37394 8.25133,-26.29826 -0.70754,-31.59039 -4.12113,-2.43441 -12.69236,-2.28439 -16.92509,0.29624 -8.02176,4.89073 -9.72678,21.42688 -2.96574,28.76323 1.25063,1.35705 3.62388,3.09229 5.27388,3.85609 3.98401,1.84423 11.93826,1.15639 15.32449,-1.32517 z M 85.301159,318.50516 v -25.05144 l 15.250001,0.27604 15.25,0.27605 0.31336,3.25 0.31336,3.25 H 104.86452 93.301159 v 6.36071 6.36071 l 5.25,0.6306 c 2.887501,0.34683 7.866011,0.63451 11.063361,0.63929 l 5.81336,0.009 -0.31336,3.25 -0.31336,3.24969 -10.75,0.28383 -10.750001,0.28383 v 7.46617 7.46617 h 12.063361 12.06336 l -0.31336,3.25 -0.31336,3.25 -15.75,0.27539 -15.750001,0.2754 z m 45.000001,6.5e-4 v -25 H 141.341 c 12.57772,0 17.75135,1.76175 20.43955,6.96015 2.2287,4.30982 1.95744,11.2148 -0.56662,14.42362 l -2.08724,2.65349 3.08724,3.51617 c 3.96215,4.51264 4.30972,11.34889 0.83723,16.46724 -3.14144,4.63038 -7.35521,5.81491 -21,5.90325 l -11.75,0.0761 z m 25.10853,15.1143 c 2.58019,-3.1864 2.37406,-6.72262 -0.56308,-9.65975 -2.14154,-2.14155 -3.35297,-2.45455 -9.5,-2.45455 h -7.04545 v 7.6093 7.6093 l 7.60853,-0.38421 c 6.50835,-0.32866 7.88203,-0.72198 9.5,-2.72009 z m -3.10853,-20.40243 c 1.97962,-0.99665 2.56428,-2.14394 2.80879,-5.51172 0.29258,-4.02972 0.12359,-4.33046 -3.21788,-5.72661 -1.93967,-0.81045 -5.79113,-1.47354 -8.55879,-1.47354 h -5.03212 v 7 7 l 5.75,-0.0147 c 3.1625,-0.008 6.875,-0.58113 8.25,-1.27339 z m 49,5.4548 c 0,-13.65834 0.18656,-25.02084 0.41457,-25.25 0.22802,-0.22917 5.74052,-0.16164 12.25,0.15006 9.29204,0.44493 12.69502,1.01622 15.83543,2.65841 8.51713,4.4538 12.51725,11.71498 12.47804,22.65059 -0.0282,7.87366 -2.39251,13.05866 -8.34285,18.29635 -5.70533,5.02204 -10.4679,6.32792 -23.07801,6.32792 h -9.55718 z m 24.06737,15.29849 c 6.5658,-3.3953 9.66806,-10.24805 8.6656,-19.14187 -0.97956,-8.69066 -6.81706,-13.31015 -17.81389,-14.09697 l -6.91908,-0.49505 v 17.4677 c 0,9.60723 0.3375,17.81044 0.75,18.22935 1.08079,1.09758 12.13937,-0.31975 15.31737,-1.96316 z m 28.93263,-15.43977 v -25.02539 h 15.5 15.5 v 3.5 3.5 h -11.5 -11.5 v 6.5 6.5 h 10.44098 c 5.74254,0 10.69054,0.40378 10.99554,0.89729 0.30501,0.49352 0.27532,2.29352 -0.066,4 l -0.62052,3.10271 h -10.375 -10.375 v 6.96826 6.96827 l 11.75,0.28173 11.75,0.28174 v 3.5 3.5 l -15.75,0.27539 -15.75,0.2754 z m 56.17732,17.22461 c -1.69177,-4.2625 -5.75623,-14.725 -9.03212,-23.25 -3.2759,-8.525 -6.27185,-16.2875 -6.65768,-17.25 -0.60768,-1.51597 -0.0812,-1.75 3.93688,-1.75 2.8155,0 4.80676,0.49125 5.06685,1.25 2.09354,6.10741 12.69061,34.25255 13.32019,35.37754 0.54111,0.96692 3.08499,-4.8633 7.67525,-17.59063 l 6.86588,-19.03691 h 4.40705 c 2.42387,0 4.25705,0.37649 4.07371,0.83664 -0.18333,0.46016 -4.38333,11.70286 -9.33333,24.98379 l -9,24.14714 -4.12337,0.0162 -4.12337,0.0162 z m 40.48935,7.08333 c -1.19261,-1.1926 -0.77775,-48.14665 0.432,-48.89431 1.29197,-0.79849 28.69787,-0.6828 30.00761,0.12667 0.49155,0.30379 0.89372,1.87579 0.89372,3.49333 v 2.94098 h -12 -12 v 6.5 6.5 h 10.94098 c 6.01754,0 11.19054,0.40378 11.49554,0.89729 0.30501,0.49352 0.27532,2.29352 -0.066,4 l -0.62052,3.10271 h -10.875 -10.875 v 7 7 h 12.03138 c 13.02544,0 13.84794,0.36039 12.55741,5.50224 l -0.62689,2.49776 h -15.31429 c -8.42285,0 -15.61428,-0.3 -15.98094,-0.66667 z m 45.33333,-24.23743 v -25.0959 h 3.5 3.5 v 20.96725 20.96725 l 11.25,0.28275 c 10.38902,0.26111 11.26957,0.43581 11.50573,2.28275 0.57413,4.49018 -0.86581,4.97991 -15.71837,5.3459 l -14.03736,0.34589 z m 100.66667,24.23743 c -0.36667,-0.36666 -0.66667,-11.61666 -0.66667,-25 v -24.33333 h 11.78811 c 10.25792,0 12.35769,0.29207 16.17601,2.25 10.88871,5.58345 10.95697,21.80375 0.11841,28.13381 -2.41467,1.41024 -5.845,2.11971 -11.74661,2.42947 l -8.33592,0.43752 v 8.3746 8.3746 h -3.33333 c -1.83334,0 -3.63334,-0.3 -4,-0.66667 z m 24.87878,-26.78788 c 1.75261,-1.7526 2.45017,-3.53994 2.43924,-6.25 -0.0273,-6.76116 -3.62805,-9.29545 -13.2072,-9.29545 h -6.77749 v 9 9 h 7.54545 c 6.67789,0 7.82768,-0.28222 10,-2.45455 z m 25.45455,1.84756 c 0,-22.93938 0.16478,-25.54375 1.58179,-25 0.86998,0.33385 3.05169,0.60699 4.84824,0.60699 h 3.26645 l 5.58768,14.25 c 3.07322,7.8375 6.45542,16.18711 7.51599,18.5547 l 1.92832,4.3047 2.64595,-6.3047 c 1.45528,-3.46759 4.80659,-11.7047 7.44736,-18.3047 l 4.8014,-12 5.20599,-0.30287 5.206,-0.30287 -0.26759,24.80287 -0.26758,24.80287 h -3.5 -3.5 l -0.5,-16.20324 -0.5,-16.20323 -6.88828,16.45323 c -6.88613,16.44809 -6.88929,16.45324 -10.11477,16.45324 -3.18785,0 -3.2863,-0.14668 -8.22209,-12.25 -2.74759,-6.7375 -5.59885,-13.9375 -6.33613,-16 -0.73728,-2.0625 -1.58761,-3.74994 -1.88962,-3.74986 -0.30201,7e-5 -0.50172,5.51257 -0.4438,12.25 0.0579,6.73742 -0.10382,13.93736 -0.35941,15.99986 -0.4343,3.50463 -0.68657,3.75 -3.85531,3.75 h -3.39059 z m 65,0.79905 c 0,-13.6723 0.18616,-25.04623 0.41369,-25.27539 0.22753,-0.22917 7.20253,-0.28162 15.5,-0.11656 l 15.08631,0.30011 v 3.44989 3.44989 h -11.5 -11.5 v 6.5 6.5 h 11.06037 11.06036 l -0.31036,3.75 -0.31037,3.75 -10.75,0.28383 -10.75,0.28383 v 6.96617 6.96617 h 12.06037 12.06036 l -0.31036,3.75 -0.31037,3.75 -15.75,0.27539 -15.75,0.2754 z m 46,-0.24956 v -25.0575 l 4.14892,0.3075 4.14893,0.3075 11.85107,17.41484 11.85108,17.41485 v -17.66485 -17.66484 h 4 4 v 25 25 h -3.99687 -3.99688 l -11.66159,-17.5 c -6.41388,-9.625 -12.07548,-17.5 -12.58133,-17.5 -0.50586,0 -0.81913,1.4625 -0.69617,3.25 0.12297,1.7875 0.15816,9.6625 0.0782,17.5 l -0.14536,14.25 h -3.5 -3.5 z m 67.75205,19.3075 c -0.23818,-3.1625 -0.34283,-12.275 -0.23254,-20.25 0.11028,-7.975 -0.01,-15.0625 -0.26649,-15.75 -0.31942,-0.85498 -2.96133,-1.25 -8.36001,-1.25 h -7.89301 v -3.5 -3.5 h 20.5 20.5 v 3.45956 3.45956 l -8.19781,0.29044 -8.19781,0.29044 -0.12196,8.5 c -0.0671,4.675 -0.20306,14.2375 -0.30219,21.25 l -0.18023,12.75 h -3.40745 -3.40745 z m -703.502048,-83.03498 -10.25,-0.28499 -0.157392,-30.21501 c -0.08657,-16.61826 -0.0954,-62.84002 -0.01962,-102.71502 0.07577,-39.875004 0.1466,-81.174844 0.157392,-91.777434 l 0.01962,-19.27743 83.749997,0.27743 83.750001,0.27743 9.5,3.3011 c 29.8763,10.38153 47.23063,32.17945 48.69321,61.16113 0.9702,19.22481 -3.24623,35.776964 -12.21835,47.964724 l -4.39803,5.9743 5.40556,5.53671 c 12.00104,12.29221 17.10144,27.71644 16.22356,49.06204 -0.35361,8.59826 -1.10975,13.84261 -2.66736,18.5 -6.98699,20.89174 -26.14514,39.56897 -48.65472,47.43335 -13.75646,4.80622 -15.65551,4.91228 -89.38387,4.99174 -38.224998,0.0412 -74.112498,-0.0533 -79.749998,-0.21007 z M 174.9179,246.42629 c 26.3589,-3.66618 49.3098,-21.60531 57.47022,-44.92048 2.70714,-7.7346 3.7447,-25.9985 2.01672,-35.5 -2.19183,-12.05201 -11.18614,-26.12714 -21.07503,-32.98014 l -4.12844,-2.86102 5.44861,-5.57942 c 6.50539,-6.66157 10.86676,-14.23627 13.28867,-23.07942 2.54373,-9.287914 2.55502,-33.446324 0.0189,-40.491754 -7.17952,-19.94525 -21.6149,-33.52972 -43.15639,-40.6125 l -7,-2.30158 -79.250001,-0.3679 -79.249997,-0.3679 V 132.435 247.50581 h 73.927637 c 47.455691,0 76.706861,-0.38655 81.689101,-1.07952 z m -114.383071,-64.67048 0.266333,-26.75 56.499998,0.38889 c 41.94751,0.28872 57.60627,0.71775 60.79509,1.6657 9.76374,2.9025 15.16602,10.22895 15.98822,21.68288 0.93843,13.07318 -3.70669,21.91887 -14.08964,26.83084 l -6.19367,2.93011 -56.76633,7.9e-4 -56.766335,7.9e-4 z M 173.52011,200.4618 c 11.485,-3.18969 17.15573,-16.92782 11.53105,-27.93556 -2.9201,-5.71477 -6.46207,-8.20057 -12.97417,-9.10547 -2.90171,-0.40321 -27.43833,-0.78178 -54.52583,-0.84126 l -49.250001,-0.10814 v 19.51722 19.51722 l 50.750001,-0.006 c 31.8246,-0.003 52.13685,-0.39074 54.46895,-1.03843 z M 61.551162,112.85062 c -0.9556,-0.39101 -1.25,-6.74068 -1.25,-26.960204 v -26.44873 l 55.749998,0.28206 55.75,0.28206 4.57018,2.68678 c 13.44903,7.90657 16.77604,29.3672 6.4511,41.612384 -1.52999,1.81454 -5.08568,4.51454 -7.90154,6 l -5.11974,2.70084 -53.5,0.17814 c -29.425001,0.098 -54.062498,-0.052 -54.749998,-0.33333 z m 108.093798,-8.29326 c 7.27649,-2.40146 11.6562,-9.314074 11.6562,-18.397304 0,-9.59491 -4.63841,-16.34881 -12.78105,-18.61024 -3.53651,-0.98219 -99.343231,-1.58352 -100.302281,-0.62955 -0.22917,0.22795 -0.28539,8.99683 -0.12494,19.48639 l 0.29172,19.071934 32.208271,0.26361 c 45.33964,0.37108 65.37948,0.0272 69.05208,-1.18484 z m 425.1562,149.9406 c -31.51117,-2.87795 -58.0278,-21.74248 -73.92994,-52.59543 -3.32702,-6.455 -5.66117,-13.44693 -7.64375,-22.89672 -0.46157,-2.2 -0.85881,-41.0125 -0.88276,-86.250004 l -0.0436,-82.25 h 28.42678 28.42678 l 0.38484,80.25 c 0.35343,73.699924 0.53055,80.694474 2.17002,85.695514 3.73553,11.39486 10.29508,17.30105 22.44419,20.20866 6.32847,1.51457 11.87733,1.83157 32.17362,1.83803 30.11837,0.01 39.33588,-1.00193 47.16732,-5.17604 7.82799,-4.17228 14.93209,-11.8986 17.7838,-19.34142 l 2.28921,-5.97474 -0.0874,-74.000004 c -0.0481,-40.7 0.22946,-76.025 0.61672,-78.5 l 0.70412,-4.5 h 28 28 l 0.30659,77 c 0.36806,92.436674 0.1263,95.353924 -9.40598,113.500004 -13.98502,26.62253 -40.01385,46.96671 -66.40061,51.89882 -6.71769,1.25565 -69.40117,2.107 -80.5,1.09333 z m 82.31095,-9.36705 c 8.99798,-2.32447 19.14593,-6.84221 26.33409,-11.72359 12.0087,-8.15496 25.78364,-24.07234 32.36736,-37.40151 7.22774,-14.63302 6.89648,-10.27641 7.4705,-98.250274 l 0.5171,-79.25027 -21.25,2.7e-4 -21.25,2.7e-4 v 74.39467 c 0,72.030044 -0.0648,74.604374 -2.03784,80.992424 -3.71802,12.03755 -14.13573,23.21161 -26.66961,28.60588 -5.73536,2.46835 -6.12821,2.49631 -39.79255,2.83202 -35.54783,0.35448 -40.17655,-0.025 -49.24704,-4.03729 -5.23801,-2.31702 -13.69907,-9.81592 -15.91895,-14.10869 -5.39212,-10.42722 -6.26226,-25.04348 -6.30267,-105.870724 l -0.0313,-62.69171 -20.25,-0.30829 c -11.1375,-0.16956 -20.59549,-0.16429 -21.01775,0.0117 -0.84502,0.35219 -0.71054,74.98371 0.23279,129.180014 l 0.60049,34.5 3.03705,7.56145 c 9.72589,24.21494 29.11996,44.76143 49.39742,52.33271 2.475,0.92412 8.55,2.55416 13.5,3.6223 8.20298,1.77009 12.32093,1.91095 46.5,1.59052 30.56944,-0.28658 38.66636,-0.65286 43.81095,-1.98188 z m -415.30756,6.14141 c -0.89606,-4.93234 -0.12571,-144.07752 0.80563,-145.51651 0.63585,-0.98245 17.55298,-1.25 79.03811,-1.25 h 78.22909 l 4.45382,-2.25 c 8.1421,-4.113264 11.41278,-12.696514 8.47846,-22.250004 -1.69343,-5.51342 -3.50064,-7.99579 -8.0085,-11.00041 -2.92773,-1.95142 -4.91001,-2.00617 -82.28362,-2.27292 l -79.28362,-0.27333 -0.96638,-2.54177 c -1.06357,-2.7974 -1.34523,-45.26733 -0.33375,-50.32472 l 0.63263,-3.16316 82.11737,0.32088 82.11737,0.32089 9.47656,2.81553 c 35.30519,10.48937 54.21979,34.93436 54.25539,70.11901 0.029,28.665084 -13.38917,52.710694 -37.5669,67.320594 -5.97238,3.60894 -18.41124,8.17941 -22.26084,8.17941 -2.24659,0 -3.33161,1.42115 -1.65421,2.16667 1.05101,0.46711 20.43073,23.30544 35.82263,42.21572 14.50604,17.82193 26.14008,32.03927 34.67737,42.37737 3.1625,3.82958 5.75,7.25028 5.75,7.60156 0,0.35127 -16.10364,0.63868 -35.78587,0.63868 h -35.78587 l -36.96413,-46.16106 c -20.33027,-25.38858 -37.28592,-46.65108 -37.67921,-47.25 -0.47856,-0.72875 -7.7555,-1.08894 -22,-1.08894 h -21.28492 l -0.5,47 -0.5,47 -26.20159,0.26651 -26.20159,0.26651 z m 45.49661,-49.83225 c 0,-29.84194 0.36458,-46.74697 1.03518,-48 0.98266,-1.83611 2.35284,-1.93426 27.00316,-1.93426 h 25.96797 l 37.74684,47.45049 37.74685,47.45048 26.3361,0.0495 26.33611,0.0495 -5.31568,-6.75 c -9.72297,-12.34652 -31.65772,-39.17033 -55.66314,-68.06997 -7.91273,-9.52598 -14.18008,-17.52667 -13.92744,-17.77931 0.25264,-0.25264 4.33577,-0.89982 9.07363,-1.43817 16.07709,-1.82681 27.03398,-7.16511 38.74543,-18.87715 12.84967,-12.85029 19.54569,-28.16327 20.5894,-47.085374 0.66934,-12.13498 -1.29334,-21.79239 -6.605,-32.5 -7.74374,-15.61035 -19.89061,-25.69855 -37.75406,-31.35542 -15.29807,-4.84448 -24.10898,-5.27879 -100.31535,-4.9448 l -68.5,0.30022 -0.27022,20.72613 -0.27021,20.72613 77.27021,0.27387 c 77.00297,0.27293 77.28405,0.28134 81.27022,2.43229 8.25732,4.45569 12.16185,10.91457 13.17831,21.79962 1.07971,11.56233 -3.62694,20.405474 -13.42,25.214354 l -5.75831,2.82761 h -36 c -19.8,0 -54.1125,0.1125 -76.25,0.25 l -40.25,0.25 v 66.83333 c 0,36.75834 0.3,67.13334 0.66667,67.5 0.36666,0.36667 8.91666,0.66667 19,0.66667 h 18.33333 z"
     id="path35" />
  <path
     style="display:inline;fill:#00ffff;fill-opacity:1"
     d="m 28.603607,343.49405 c -1.465542,-0.5902 -2.562638,-2.31787 -3.293561,-5.18662 -0.602803,-2.36589 -2.628735,-9.47662 -4.502071,-15.80162 -3.659857,-12.35688 -7.506813,-26.8318 -7.506813,-28.24583 0,-0.47804 1.873243,-0.73079 4.162763,-0.56167 l 4.162762,0.3075 4.304626,16.5 c 2.367545,9.075 4.319302,16.9125 4.337238,17.41667 0.08939,2.51263 1.521792,-1.61288 5.91549,-17.0374 l 4.808084,-16.87927 3.989634,-0.29944 3.989633,-0.29944 4.837046,16.79944 c 2.660375,9.23969 5.111626,17.12899 5.447225,17.53178 0.335598,0.40279 2.620626,-7.13464 5.077839,-16.74984 l 4.467657,-17.48218 3.75,-1.6e-4 c 2.63172,-1.1e-4 3.75,0.43795 3.75,1.46897 0,2.06747 -11.995119,45.63941 -13.171482,47.84505 -0.760205,1.42536 -1.649234,1.66823 -4.148049,1.13319 -1.749256,-0.37455 -3.324213,-0.80968 -3.499904,-0.96696 -0.637354,-0.57055 -9.141918,-30.02737 -9.160977,-31.73041 -0.02824,-2.52355 -1.699917,-2.15489 -2.267194,0.5 -1.577598,7.38325 -9.163255,31.36994 -10.114976,31.98469 -1.428304,0.92258 -2.562166,0.8702 -5.33497,-0.24645 z m 422.518103,-0.35351 c -11.06045,-3.04843 -16.13226,-10.7433 -16.17374,-24.53856 -0.0306,-10.17264 2.05907,-15.87482 7.60063,-20.74031 4.85046,-4.25871 9.61433,-5.64587 17.80077,-5.18329 8.9194,0.50399 14.23422,3.9387 18.20179,11.76293 2.28278,4.50176 2.74905,6.70936 2.74442,12.99381 -0.003,4.16388 -0.45127,9.1751 -0.99602,11.13604 -1.25518,4.51834 -6.94488,11.21612 -11.21538,13.20248 -4.84841,2.25516 -12.59956,2.845 -17.96247,1.3669 z m 16.00394,-9.31618 c 8.69759,-6.37394 8.25133,-26.29826 -0.70754,-31.59039 -4.12113,-2.43441 -12.69236,-2.28439 -16.92509,0.29624 -8.02176,4.89073 -9.72678,21.42688 -2.96574,28.76323 1.25063,1.35705 3.62388,3.09229 5.27388,3.85609 3.98401,1.84423 11.93826,1.15639 15.32449,-1.32517 z M 85.301159,318.50516 v -25.05144 l 15.250001,0.27604 15.25,0.27605 0.31336,3.25 0.31336,3.25 H 104.86452 93.301159 v 6.36071 6.36071 l 5.25,0.6306 c 2.887501,0.34683 7.866011,0.63451 11.063361,0.63929 l 5.81336,0.009 -0.31336,3.25 -0.31336,3.24969 -10.75,0.28383 -10.750001,0.28383 v 7.46617 7.46617 h 12.063361 12.06336 l -0.31336,3.25 -0.31336,3.25 -15.75,0.27539 -15.750001,0.2754 z m 45.000001,6.5e-4 v -25 H 141.341 c 12.57772,0 17.75135,1.76175 20.43955,6.96015 2.2287,4.30982 1.95744,11.2148 -0.56662,14.42362 l -2.08724,2.65349 3.08724,3.51617 c 3.96215,4.51264 4.30972,11.34889 0.83723,16.46724 -3.14144,4.63038 -7.35521,5.81491 -21,5.90325 l -11.75,0.0761 z m 25.10853,15.1143 c 2.58019,-3.1864 2.37406,-6.72262 -0.56308,-9.65975 -2.14154,-2.14155 -3.35297,-2.45455 -9.5,-2.45455 h -7.04545 v 7.6093 7.6093 l 7.60853,-0.38421 c 6.50835,-0.32866 7.88203,-0.72198 9.5,-2.72009 z m -3.10853,-20.40243 c 1.97962,-0.99665 2.56428,-2.14394 2.80879,-5.51172 0.29258,-4.02972 0.12359,-4.33046 -3.21788,-5.72661 -1.93967,-0.81045 -5.79113,-1.47354 -8.55879,-1.47354 h -5.03212 v 7 7 l 5.75,-0.0147 c 3.1625,-0.008 6.875,-0.58113 8.25,-1.27339 z m 49,5.4548 c 0,-13.65834 0.18656,-25.02084 0.41457,-25.25 0.22802,-0.22917 5.74052,-0.16164 12.25,0.15006 9.29204,0.44493 12.69502,1.01622 15.83543,2.65841 8.51713,4.4538 12.51725,11.71498 12.47804,22.65059 -0.0282,7.87366 -2.39251,13.05866 -8.34285,18.29635 -5.70533,5.02204 -10.4679,6.32792 -23.07801,6.32792 h -9.55718 z m 24.06737,15.29849 c 6.5658,-3.3953 9.66806,-10.24805 8.6656,-19.14187 -0.97956,-8.69066 -6.81706,-13.31015 -17.81389,-14.09697 l -6.91908,-0.49505 v 17.4677 c 0,9.60723 0.3375,17.81044 0.75,18.22935 1.08079,1.09758 12.13937,-0.31975 15.31737,-1.96316 z m 28.93263,-15.43977 v -25.02539 h 15.5 15.5 v 3.5 3.5 h -11.5 -11.5 v 6.5 6.5 h 10.44098 c 5.74254,0 10.69054,0.40378 10.99554,0.89729 0.30501,0.49352 0.27532,2.29352 -0.066,4 l -0.62052,3.10271 h -10.375 -10.375 v 6.96826 6.96827 l 11.75,0.28173 11.75,0.28174 v 3.5 3.5 l -15.75,0.27539 -15.75,0.2754 z m 56.17732,17.22461 c -1.69177,-4.2625 -5.75623,-14.725 -9.03212,-23.25 -3.2759,-8.525 -6.27185,-16.2875 -6.65768,-17.25 -0.60768,-1.51597 -0.0812,-1.75 3.93688,-1.75 2.8155,0 4.80676,0.49125 5.06685,1.25 2.09354,6.10741 12.69061,34.25255 13.32019,35.37754 0.54111,0.96692 3.08499,-4.8633 7.67525,-17.59063 l 6.86588,-19.03691 h 4.40705 c 2.42387,0 4.25705,0.37649 4.07371,0.83664 -0.18333,0.46016 -4.38333,11.70286 -9.33333,24.98379 l -9,24.14714 -4.12337,0.0162 -4.12337,0.0162 z m 40.48935,7.08333 c -1.19261,-1.1926 -0.77775,-48.14665 0.432,-48.89431 1.29197,-0.79849 28.69787,-0.6828 30.00761,0.12667 0.49155,0.30379 0.89372,1.87579 0.89372,3.49333 v 2.94098 h -12 -12 v 6.5 6.5 h 10.94098 c 6.01754,0 11.19054,0.40378 11.49554,0.89729 0.30501,0.49352 0.27532,2.29352 -0.066,4 l -0.62052,3.10271 h -10.875 -10.875 v 7 7 h 12.03138 c 13.02544,0 13.84794,0.36039 12.55741,5.50224 l -0.62689,2.49776 h -15.31429 c -8.42285,0 -15.61428,-0.3 -15.98094,-0.66667 z m 45.33333,-24.23743 v -25.0959 h 3.5 3.5 v 20.96725 20.96725 l 11.25,0.28275 c 10.38902,0.26111 11.26957,0.43581 11.50573,2.28275 0.57413,4.49018 -0.86581,4.97991 -15.71837,5.3459 l -14.03736,0.34589 z m 100.66667,24.23743 c -0.36667,-0.36666 -0.66667,-11.61666 -0.66667,-25 v -24.33333 h 11.78811 c 10.25792,0 12.35769,0.29207 16.17601,2.25 10.88871,5.58345 10.95697,21.80375 0.11841,28.13381 -2.41467,1.41024 -5.845,2.11971 -11.74661,2.42947 l -8.33592,0.43752 v 8.3746 8.3746 h -3.33333 c -1.83334,0 -3.63334,-0.3 -4,-0.66667 z m 24.87878,-26.78788 c 1.75261,-1.7526 2.45017,-3.53994 2.43924,-6.25 -0.0273,-6.76116 -3.62805,-9.29545 -13.2072,-9.29545 h -6.77749 v 9 9 h 7.54545 c 6.67789,0 7.82768,-0.28222 10,-2.45455 z m 25.45455,1.84756 c 0,-22.93938 0.16478,-25.54375 1.58179,-25 0.86998,0.33385 3.05169,0.60699 4.84824,0.60699 h 3.26645 l 5.58768,14.25 c 3.07322,7.8375 6.45542,16.18711 7.51599,18.5547 l 1.92832,4.3047 2.64595,-6.3047 c 1.45528,-3.46759 4.80659,-11.7047 7.44736,-18.3047 l 4.8014,-12 5.20599,-0.30287 5.206,-0.30287 -0.26759,24.80287 -0.26758,24.80287 h -3.5 -3.5 l -0.5,-16.20324 -0.5,-16.20323 -6.88828,16.45323 c -6.88613,16.44809 -6.88929,16.45324 -10.11477,16.45324 -3.18785,0 -3.2863,-0.14668 -8.22209,-12.25 -2.74759,-6.7375 -5.59885,-13.9375 -6.33613,-16 -0.73728,-2.0625 -1.58761,-3.74994 -1.88962,-3.74986 -0.30201,7e-5 -0.50172,5.51257 -0.4438,12.25 0.0579,6.73742 -0.10382,13.93736 -0.35941,15.99986 -0.4343,3.50463 -0.68657,3.75 -3.85531,3.75 h -3.39059 z m 65,0.79905 c 0,-13.6723 0.18616,-25.04623 0.41369,-25.27539 0.22753,-0.22917 7.20253,-0.28162 15.5,-0.11656 l 15.08631,0.30011 v 3.44989 3.44989 h -11.5 -11.5 v 6.5 6.5 h 11.06037 11.06036 l -0.31036,3.75 -0.31037,3.75 -10.75,0.28383 -10.75,0.28383 v 6.96617 6.96617 h 12.06037 12.06036 l -0.31036,3.75 -0.31037,3.75 -15.75,0.27539 -15.75,0.2754 z m 46,-0.24956 v -25.0575 l 4.14892,0.3075 4.14893,0.3075 11.85107,17.41484 11.85108,17.41485 v -17.66485 -17.66484 h 4 4 v 25 25 h -3.99687 -3.99688 l -11.66159,-17.5 c -6.41388,-9.625 -12.07548,-17.5 -12.58133,-17.5 -0.50586,0 -0.81913,1.4625 -0.69617,3.25 0.12297,1.7875 0.15816,9.6625 0.0782,17.5 l -0.14536,14.25 h -3.5 -3.5 z m 67.75205,19.3075 c -0.23818,-3.1625 -0.34283,-12.275 -0.23254,-20.25 0.11028,-7.975 -0.01,-15.0625 -0.26649,-15.75 -0.31942,-0.85498 -2.96133,-1.25 -8.36001,-1.25 h -7.89301 v -3.5 -3.5 h 20.5 20.5 v 3.45956 3.45956 l -8.19781,0.29044 -8.19781,0.29044 -0.12196,8.5 c -0.0671,4.675 -0.20306,14.2375 -0.30219,21.25 l -0.18023,12.75 h -3.40745 -3.40745 z m -703.502048,-83.03498 -10.25,-0.28499 -0.157392,-30.21501 c -0.08657,-16.61826 -0.0954,-62.84002 -0.01962,-102.71502 0.07577,-39.875004 0.1466,-81.174844 0.157392,-91.777434 l 0.01962,-19.27743 83.749997,0.27743 83.750001,0.27743 9.5,3.3011 c 29.8763,10.38153 47.23063,32.17945 48.69321,61.16113 0.9702,19.22481 -3.24623,35.776964 -12.21835,47.964724 l -4.39803,5.9743 5.40556,5.53671 c 12.00104,12.29221 17.10144,27.71644 16.22356,49.06204 -0.35361,8.59826 -1.10975,13.84261 -2.66736,18.5 -6.98699,20.89174 -26.14514,39.56897 -48.65472,47.43335 -13.75646,4.80622 -15.65551,4.91228 -89.38387,4.99174 -38.224998,0.0412 -74.112498,-0.0533 -79.749998,-0.21007 z M 174.9179,246.42629 c 26.3589,-3.66618 49.3098,-21.60531 57.47022,-44.92048 2.70714,-7.7346 3.7447,-25.9985 2.01672,-35.5 -2.19183,-12.05201 -11.18614,-26.12714 -21.07503,-32.98014 l -4.12844,-2.86102 5.44861,-5.57942 c 6.50539,-6.66157 10.86676,-14.23627 13.28867,-23.07942 2.54373,-9.287914 2.55502,-33.446324 0.0189,-40.491754 -7.17952,-19.94525 -21.6149,-33.52972 -43.15639,-40.6125 l -7,-2.30158 -79.250001,-0.3679 -79.249997,-0.3679 V 132.435 247.50581 h 73.927637 c 47.455691,0 76.706861,-0.38655 81.689101,-1.07952 z m -114.383071,-64.67048 0.266333,-26.75 56.499998,0.38889 c 41.94751,0.28872 57.60627,0.71775 60.79509,1.6657 9.76374,2.9025 15.16602,10.22895 15.98822,21.68288 0.93843,13.07318 -3.70669,21.91887 -14.08964,26.83084 l -6.19367,2.93011 -56.76633,7.9e-4 -56.766335,7.9e-4 z M 173.52011,200.4618 c 11.485,-3.18969 17.15573,-16.92782 11.53105,-27.93556 -2.9201,-5.71477 -6.46207,-8.20057 -12.97417,-9.10547 -2.90171,-0.40321 -27.43833,-0.78178 -54.52583,-0.84126 l -49.250001,-0.10814 v 19.51722 19.51722 l 50.750001,-0.006 c 31.8246,-0.003 52.13685,-0.39074 54.46895,-1.03843 z M 61.551162,112.85062 c -0.9556,-0.39101 -1.25,-6.74068 -1.25,-26.960204 v -26.44873 l 55.749998,0.28206 55.75,0.28206 4.57018,2.68678 c 13.44903,7.90657 16.77604,29.3672 6.4511,41.612384 -1.52999,1.81454 -5.08568,4.51454 -7.90154,6 l -5.11974,2.70084 -53.5,0.17814 c -29.425001,0.098 -54.062498,-0.052 -54.749998,-0.33333 z m 108.093798,-8.29326 c 7.27649,-2.40146 11.6562,-9.314074 11.6562,-18.397304 0,-9.59491 -4.63841,-16.34881 -12.78105,-18.61024 -3.53651,-0.98219 -99.343231,-1.58352 -100.302281,-0.62955 -0.22917,0.22795 -0.28539,8.99683 -0.12494,19.48639 l 0.29172,19.071934 32.208271,0.26361 c 45.33964,0.37108 65.37948,0.0272 69.05208,-1.18484 z m 425.1562,149.9406 c -31.51117,-2.87795 -58.0278,-21.74248 -73.92994,-52.59543 -3.32702,-6.455 -5.66117,-13.44693 -7.64375,-22.89672 -0.46157,-2.2 -0.85881,-41.0125 -0.88276,-86.250004 l -0.0436,-82.25 h 28.42678 28.42678 l 0.38484,80.25 c 0.35343,73.699924 0.53055,80.694474 2.17002,85.695514 3.73553,11.39486 10.29508,17.30105 22.44419,20.20866 6.32847,1.51457 11.87733,1.83157 32.17362,1.83803 30.11837,0.01 39.33588,-1.00193 47.16732,-5.17604 7.82799,-4.17228 14.93209,-11.8986 17.7838,-19.34142 l 2.28921,-5.97474 -0.0874,-74.000004 c -0.0481,-40.7 0.22946,-76.025 0.61672,-78.5 l 0.70412,-4.5 h 28 28 l 0.30659,77 c 0.36806,92.436674 0.1263,95.353924 -9.40598,113.500004 -13.98502,26.62253 -40.01385,46.96671 -66.40061,51.89882 -6.71769,1.25565 -69.40117,2.107 -80.5,1.09333 z m 82.31095,-9.36705 c 8.99798,-2.32447 19.14593,-6.84221 26.33409,-11.72359 12.0087,-8.15496 25.78364,-24.07234 32.36736,-37.40151 7.22774,-14.63302 6.89648,-10.27641 7.4705,-98.250274 l 0.5171,-79.25027 -21.25,2.7e-4 -21.25,2.7e-4 v 74.39467 c 0,72.030044 -0.0648,74.604374 -2.03784,80.992424 -3.71802,12.03755 -14.13573,23.21161 -26.66961,28.60588 -5.73536,2.46835 -6.12821,2.49631 -39.79255,2.83202 -35.54783,0.35448 -40.17655,-0.025 -49.24704,-4.03729 -5.23801,-2.31702 -13.69907,-9.81592 -15.91895,-14.10869 -5.39212,-10.42722 -6.26226,-25.04348 -6.30267,-105.870724 l -0.0313,-62.69171 -20.25,-0.30829 c -11.1375,-0.16956 -20.59549,-0.16429 -21.01775,0.0117 -0.84502,0.35219 -0.71054,74.98371 0.23279,129.180014 l 0.60049,34.5 3.03705,7.56145 c 9.72589,24.21494 29.11996,44.76143 49.39742,52.33271 2.475,0.92412 8.55,2.55416 13.5,3.6223 8.20298,1.77009 12.32093,1.91095 46.5,1.59052 30.56944,-0.28658 38.66636,-0.65286 43.81095,-1.98188 z m -415.30756,6.14141 c -0.89606,-4.93234 -0.12571,-144.07752 0.80563,-145.51651 0.63585,-0.98245 17.55298,-1.25 79.03811,-1.25 h 78.22909 l 4.45382,-2.25 c 8.1421,-4.113264 11.41278,-12.696514 8.47846,-22.250004 -1.69343,-5.51342 -3.50064,-7.99579 -8.0085,-11.00041 -2.92773,-1.95142 -4.91001,-2.00617 -82.28362,-2.27292 l -79.28362,-0.27333 -0.96638,-2.54177 c -1.06357,-2.7974 -1.34523,-45.26733 -0.33375,-50.32472 l 0.63263,-3.16316 82.11737,0.32088 82.11737,0.32089 9.47656,2.81553 c 35.30519,10.48937 54.21979,34.93436 54.25539,70.11901 0.029,28.665084 -13.38917,52.710694 -37.5669,67.320594 -5.97238,3.60894 -18.41124,8.17941 -22.26084,8.17941 -2.24659,0 -3.33161,1.42115 -1.65421,2.16667 1.05101,0.46711 20.43073,23.30544 35.82263,42.21572 14.50604,17.82193 26.14008,32.03927 34.67737,42.37737 3.1625,3.82958 5.75,7.25028 5.75,7.60156 0,0.35127 -16.10364,0.63868 -35.78587,0.63868 h -35.78587 l -36.96413,-46.16106 c -20.33027,-25.38858 -37.28592,-46.65108 -37.67921,-47.25 -0.47856,-0.72875 -7.7555,-1.08894 -22,-1.08894 h -21.28492 l -0.5,47 -0.5,47 -26.20159,0.26651 -26.20159,0.26651 z m 45.49661,-49.83225 c 0,-29.84194 0.36458,-46.74697 1.03518,-48 0.98266,-1.83611 2.35284,-1.93426 27.00316,-1.93426 h 25.96797 l 37.74684,47.45049 37.74685,47.45048 26.3361,0.0495 26.33611,0.0495 -5.31568,-6.75 c -9.72297,-12.34652 -31.65772,-39.17033 -55.66314,-68.06997 -7.91273,-9.52598 -14.18008,-17.52667 -13.92744,-17.77931 0.25264,-0.25264 4.33577,-0.89982 9.07363,-1.43817 16.07709,-1.82681 27.03398,-7.16511 38.74543,-18.87715 12.84967,-12.85029 19.54569,-28.16327 20.5894,-47.085374 0.66934,-12.13498 -1.29334,-21.79239 -6.605,-32.5 -7.74374,-15.61035 -19.89061,-25.69855 -37.75406,-31.35542 -15.29807,-4.84448 -24.10898,-5.27879 -100.31535,-4.9448 l -68.5,0.30022 -0.27022,20.72613 -0.27021,20.72613 77.27021,0.27387 c 77.00297,0.27293 77.28405,0.28134 81.27022,2.43229 8.25732,4.45569 12.16185,10.91457 13.17831,21.79962 1.07971,11.56233 -3.62694,20.405474 -13.42,25.214354 l -5.75831,2.82761 h -36 c -19.8,0 -54.1125,0.1125 -76.25,0.25 l -40.25,0.25 v 66.83333 c 0,36.75834 0.3,67.13334 0.66667,67.5 0.36666,0.36667 8.91666,0.66667 19,0.66667 h 18.33333 z"
     id="path1" />
</svg>
